{
    "asset" : {
        "generator" : "Khronos glTF Blender I/O v3.2.40",
        "version" : "2.0"
    },
    "scene" : 0,
    "scenes" : [
        {
            "name" : "Scene",
            "nodes" : [
                0
            ]
        }
    ],
    "nodes" : [
        {
            "mesh" : 0,
            "name" : "Torus",
            "translation" : [
                -0.558081865310669,
                -1.023756742477417,
                -0.709869384765625
            ]
        }
    ],
    "materials" : [
        {
            "doubleSided" : true,
            "name" : "Material.001",
            "pbrMetallicRoughness" : {
                "baseColorFactor" : [
                    0.800000011920929,
                    0.800000011920929,
                    0.800000011920929,
                    1
                ],
                "metallicFactor" : 0,
                "roughnessFactor" : 0.5
            }
        },
        {
            "doubleSided" : true,
            "name" : "Material.002",
            "pbrMetallicRoughness" : {
                "baseColorFactor" : [
                    0.06847816705703735,
                    0.025186827406287193,
                    0.023153362795710564,
                    1
                ],
                "metallicFactor" : 0.7231832146644592,
                "roughnessFactor" : 0.09515571594238281
            }
        }
    ],
    "meshes" : [
        {
            "name" : "Torus",
            "primitives" : [
                {
                    "attributes" : {
                        "POSITION" : 0,
                        "NORMAL" : 1,
                        "TEXCOORD_0" : 2
                    },
                    "indices" : 3,
                    "material" : 0
                },
                {
                    "attributes" : {
                        "POSITION" : 4,
                        "NORMAL" : 5,
                        "TEXCOORD_0" : 6
                    },
                    "indices" : 7,
                    "material" : 1
                }
            ]
        }
    ],
    "accessors" : [
        {
            "bufferView" : 0,
            "componentType" : 5126,
            "count" : 2343,
            "max" : [
                1.882822036743164,
                2.6894984245300293,
                2.033829689025879
            ],
            "min" : [
                -1.3295389413833618,
                1.0072641372680664,
                -0.6142119765281677
            ],
            "type" : "VEC3"
        },
        {
            "bufferView" : 1,
            "componentType" : 5126,
            "count" : 2343,
            "type" : "VEC3"
        },
        {
            "bufferView" : 2,
            "componentType" : 5126,
            "count" : 2343,
            "type" : "VEC2"
        },
        {
            "bufferView" : 3,
            "componentType" : 5123,
            "count" : 2343,
            "type" : "SCALAR"
        },
        {
            "bufferView" : 4,
            "componentType" : 5126,
            "count" : 16,
            "max" : [
                1.8167520761489868,
                2.357790946960449,
                1.9438599348068237
            ],
            "min" : [
                -0.7005883455276489,
                2.3478026390075684,
                -0.5241209864616394
            ],
            "type" : "VEC3"
        },
        {
            "bufferView" : 5,
            "componentType" : 5126,
            "count" : 16,
            "type" : "VEC3"
        },
        {
            "bufferView" : 6,
            "componentType" : 5126,
            "count" : 16,
            "type" : "VEC2"
        },
        {
            "bufferView" : 7,
            "componentType" : 5123,
            "count" : 42,
            "type" : "SCALAR"
        }
    ],
    "bufferViews" : [
        {
            "buffer" : 0,
            "byteLength" : 28116,
            "byteOffset" : 0
        },
        {
            "buffer" : 0,
            "byteLength" : 28116,
            "byteOffset" : 28116
        },
        {
            "buffer" : 0,
            "byteLength" : 18744,
            "byteOffset" : 56232
        },
        {
            "buffer" : 0,
            "byteLength" : 4686,
            "byteOffset" : 74976
        },
        {
            "buffer" : 0,
            "byteLength" : 192,
            "byteOffset" : 79664
        },
        {
            "buffer" : 0,
            "byteLength" : 192,
            "byteOffset" : 79856
        },
        {
            "buffer" : 0,
            "byteLength" : 128,
            "byteOffset" : 80048
        },
        {
            "buffer" : 0,
            "byteLength" : 84,
            "byteOffset" : 80176
        }
    ],
    "buffers" : [
        {
            "byteLength" : 80260,
            "uri" : "data:application/octet-stream;base64,"
        }
    ]
}
