{
    "asset" : {
        "generator" : "Khronos glTF Blender I/O v3.2.40",
        "version" : "2.0"
    },
    "scene" : 0,
    "scenes" : [
        {
            "name" : "Scene",
            "nodes" : [
                0
            ]
        }
    ],
    "nodes" : [
        {
            "mesh" : 0,
            "name" : "Plane"
        }
    ],
    "materials" : [
        {
            "doubleSided" : true,
            "name" : "aluminium",
            "pbrMetallicRoughness" : {
                "baseColorFactor" : [
                    0.31081438064575195,
                    0.31081438064575195,
                    0.31081438064575195,
                    1
                ],
                "metallicFactor" : 0.10563380271196365,
                "roughnessFactor" : 0.3380281925201416
            }
        },
        {
            "doubleSided" : true,
            "name" : "glass",
            "pbrMetallicRoughness" : {
                "baseColorFactor" : [
                    0.882925271987915,
                    0.882925271987915,
                    0.882925271987915,
                    1
                ],
                "metallicFactor" : 0.8028168678283691,
                "roughnessFactor" : 0.2042253464460373
            }
        },
        {
            "doubleSided" : true,
            "name" : "plastic",
            "pbrMetallicRoughness" : {
                "baseColorFactor" : [
                    0,
                    0,
                    0,
                    1
                ],
                "metallicFactor" : 0
            }
        },
        {
            "doubleSided" : true,
            "name" : "screen",
            "pbrMetallicRoughness" : {
                "baseColorFactor" : [
                    0,
                    0,
                    0,
                    1
                ],
                "metallicFactor" : 0,
                "roughnessFactor" : 0.5
            }
        }
    ],
    "meshes" : [
        {
            "name" : "Plane",
            "primitives" : [
                {
                    "attributes" : {
                        "POSITION" : 0,
                        "NORMAL" : 1,
                        "TEXCOORD_0" : 2
                    },
                    "indices" : 3,
                    "material" : 0
                },
                {
                    "attributes" : {
                        "POSITION" : 4,
                        "NORMAL" : 5,
                        "TEXCOORD_0" : 6
                    },
                    "indices" : 7,
                    "material" : 1
                },
                {
                    "attributes" : {
                        "POSITION" : 8,
                        "NORMAL" : 9,
                        "TEXCOORD_0" : 10
                    },
                    "indices" : 11,
                    "material" : 2
                },
                {
                    "attributes" : {
                        "POSITION" : 12,
                        "NORMAL" : 13,
                        "TEXCOORD_0" : 14
                    },
                    "indices" : 15,
                    "material" : 3
                }
            ]
        }
    ],
    "accessors" : [
        {
            "bufferView" : 0,
            "componentType" : 5126,
            "count" : 403,
            "max" : [
                1.5205003023147583,
                2.055447816848755,
                1.0620005130767822
            ],
            "min" : [
                -1.5205004215240479,
                -0.013050103560090065,
                -1.5996367931365967
            ],
            "type" : "VEC3"
        },
        {
            "bufferView" : 1,
            "componentType" : 5126,
            "count" : 403,
            "type" : "VEC3"
        },
        {
            "bufferView" : 2,
            "componentType" : 5126,
            "count" : 403,
            "type" : "VEC2"
        },
        {
            "bufferView" : 3,
            "componentType" : 5123,
            "count" : 690,
            "type" : "SCALAR"
        },
        {
            "bufferView" : 4,
            "componentType" : 5126,
            "count" : 4,
            "max" : [
                0.587044894695282,
                0.05594947934150696,
                0.9846265912055969
            ],
            "min" : [
                -0.5840337872505188,
                0.05594947934150696,
                0.19279412925243378
            ],
            "type" : "VEC3"
        },
        {
            "bufferView" : 5,
            "componentType" : 5126,
            "count" : 4,
            "type" : "VEC3"
        },
        {
            "bufferView" : 6,
            "componentType" : 5126,
            "count" : 4,
            "type" : "VEC2"
        },
        {
            "bufferView" : 7,
            "componentType" : 5123,
            "count" : 6,
            "type" : "SCALAR"
        },
        {
            "bufferView" : 8,
            "componentType" : 5126,
            "count" : 1900,
            "max" : [
                1.3516892194747925,
                0.06691496819257736,
                0.13026921451091766
            ],
            "min" : [
                -1.347588062286377,
                0.05247517302632332,
                -1.0687106847763062
            ],
            "type" : "VEC3"
        },
        {
            "bufferView" : 9,
            "componentType" : 5126,
            "count" : 1900,
            "type" : "VEC3"
        },
        {
            "bufferView" : 10,
            "componentType" : 5126,
            "count" : 1900,
            "type" : "VEC2"
        },
        {
            "bufferView" : 11,
            "componentType" : 5123,
            "count" : 2850,
            "type" : "SCALAR"
        },
        {
            "bufferView" : 12,
            "componentType" : 5126,
            "count" : 4,
            "max" : [
                1.4388525485992432,
                1.9290478229522705,
                -1.1070047616958618
            ],
            "min" : [
                -1.4360439777374268,
                0.1841515749692917,
                -1.5427920818328857
            ],
            "type" : "VEC3"
        },
        {
            "bufferView" : 13,
            "componentType" : 5126,
            "count" : 4,
            "type" : "VEC3"
        },
        {
            "bufferView" : 14,
            "componentType" : 5126,
            "count" : 4,
            "type" : "VEC2"
        },
        {
            "bufferView" : 15,
            "componentType" : 5123,
            "count" : 6,
            "type" : "SCALAR"
        }
    ],
    "bufferViews" : [
        {
            "buffer" : 0,
            "byteLength" : 4836,
            "byteOffset" : 0
        },
        {
            "buffer" : 0,
            "byteLength" : 4836,
            "byteOffset" : 4836
        },
        {
            "buffer" : 0,
            "byteLength" : 3224,
            "byteOffset" : 9672
        },
        {
            "buffer" : 0,
            "byteLength" : 1380,
            "byteOffset" : 12896
        },
        {
            "buffer" : 0,
            "byteLength" : 48,
            "byteOffset" : 14276
        },
        {
            "buffer" : 0,
            "byteLength" : 48,
            "byteOffset" : 14324
        },
        {
            "buffer" : 0,
            "byteLength" : 32,
            "byteOffset" : 14372
        },
        {
            "buffer" : 0,
            "byteLength" : 12,
            "byteOffset" : 14404
        },
        {
            "buffer" : 0,
            "byteLength" : 22800,
            "byteOffset" : 14416
        },
        {
            "buffer" : 0,
            "byteLength" : 22800,
            "byteOffset" : 37216
        },
        {
            "buffer" : 0,
            "byteLength" : 15200,
            "byteOffset" : 60016
        },
        {
            "buffer" : 0,
            "byteLength" : 5700,
            "byteOffset" : 75216
        },
        {
            "buffer" : 0,
            "byteLength" : 48,
            "byteOffset" : 80916
        },
        {
            "buffer" : 0,
            "byteLength" : 48,
            "byteOffset" : 80964
        },
        {
            "buffer" : 0,
            "byteLength" : 32,
            "byteOffset" : 81012
        },
        {
            "buffer" : 0,
            "byteLength" : 12,
            "byteOffset" : 81044
        }
    ],
    "buffers" : [
        {
            "byteLength" : 81056,
            "uri" : "data:application/octet-stream;base64,"
        }
    ]
}
